<svg version="1.1" id="Layer_1" xmlns="http://www.w3.org/2000/svg" x="0" y="0" viewBox="0 0 84 84" xml:space="preserve"><style>.st1{fill:none;stroke:#898d9a;stroke-width:2;stroke-linecap:round;stroke-linejoin:round}</style><path class="st1" d="M17.3 27.6l-15 2.7c-.6-7.1-.1-13.8 9.8-15.4"/><path class="st1" d="M64.5 56.1c-.6-1.3-1.3-2.7-2-4.3C57.6 41.1 65.2 7 45.8 9.7c0 0-27.4 4.1-33.7 5.3C5.4 16.2 4 19.4 4 19.4c5.1-6.6 14-1 13.3 7.9m0 0s-5.8 47.9 17.9 47.2m2.4-.3l-2.4.3c7.5-1.2 10.5-7.3 9.6-13.8l-.2-1.1 37-6.5c.6 7.1.1 13.8-9.8 15.4l-34.2 5.7zM26.9 32.3l2.4 19.6"/><path class="st1" d="M31.9 38.1s-3.5-6.6-5-7.1c-1.8 2.2-3.8 8.2-3.8 8.2m15.1-4.4l14.4-2.3m-13.4 8.9l12.3-1.9M40.3 48l8.6-1.3"/></svg>
