<svg version="1.1" id="Layer_1" xmlns="http://www.w3.org/2000/svg" x="0" y="0" viewBox="0 0 84 84" xml:space="preserve"><style>.st1{fill:none;stroke:#898d9a;stroke-width:2;stroke-linecap:round;stroke-linejoin:round}</style><path d="M28.3 31.2S60.7 18.5 64 14.5c7.1 22.1 14.7 48.6 14.7 48.6s-19.4.2-37 8.5c-1.5.5-3.5.5-3.6-.8-1-11.4-9.8-39.6-9.8-39.6" fill="none"/><path class="st1" d="M55.5 19.6c4.3-2.1 7.6-3.9 8.5-5 7.1 22.1 14.7 48.6 14.7 48.6s-19.4.2-37 8.5c-1.5.5-3.5.5-3.6-.8"/><path class="st1" d="M18.3 25.4S40.8 14.6 48.4 4.7c6.1 12.1 17.3 37.2 20 45.2-9.2 8.7-30.2 20.9-30.2 20.9s-.4-13.7-19.9-45.4z"/><path class="st1" d="M33.4 54.3L35.9 44l4.7 3.6.7-18.1 8.6 6.5V21.7"/><path class="st1" d="M46.1 25.9l3.8-4.9 3.4 5.8M5.6 67.1c1.9-5.4 6.9-16.3 14.9-22.2m-8 33.2c.6-6.8 6.4-20.6 11.7-25.7M23 76.3c1-4.9 3.3-9.7 5.8-13"/></svg>
