<svg version="1.1" id="Layer_1" xmlns="http://www.w3.org/2000/svg" x="0" y="0" viewBox="0 0 84 84" xml:space="preserve"><style>.st1{fill:none;stroke:#898d9a;stroke-width:2;stroke-linecap:round;stroke-linejoin:round}</style><path class="st1" d="M16.2 28.8s6.3-7.3 8.9-8.9c-1.2-9.3-.7-8.2-.7-8.2s7-4.4 15.7-5.7c2 3.4 4 6.9 4 6.9s7-.3 11.3 1.1c4.7-3.6 7.9-5 7.9-5s6.4 2.1 11.5 9.2c-4.4 6.6-4.5 7.7-4.5 7.7s2.5 5.7 2.8 10.1c7.8 2.2 8 2.9 8 2.9s-.8 9.7-4.3 14.9c-4.9.5-9.2.9-9.2.9s-2.3 5.4-8.4 9c.7 4 .8 8.5.8 8.5s-10 5.9-16.6 6l-4-6.5s-8.7.6-11.9-1.5c-3.6 2.9-7 5.5-7 5.5s-9.1-3.2-11.7-10l4.8-6.9s-4-8.5-3.4-11.1c-5.8-1.6-6.9-2.2-6.9-2.2s.3-10.9 4.1-15.7l8.8-1z"/><path class="st1" d="M63.3 36.1c1.8 10.4-5.2 23.8-23.3 27-10 1.7-19.7-5.3-21.5-15.7-1.8-10.4 6.6-21.6 16.3-25.1 16-5.8 26.7 3.4 28.5 13.8zm-33.8-2.2v18.5"/><path class="st1" d="M33.7 39.3s-2.8-4.9-4-6.6c-1.9 1.2-4.6 7.1-4.6 7.1m13.1-3.9H54m-15.8 6.3h13.2m-13.2 6.3h10.2"/></svg>
